
<svg xmlns="http://www.w3.org/2000/svg" version="1.1" xmlns:xlink="http://www.w3.org/1999/xlink" preserveAspectRatio="none" x="0px" y="0px" width="512px" height="512px" viewBox="0 0 512 512">
<defs>
<linearGradient id="Gradient_1" gradientUnits="userSpaceOnUse" x1="-3.400000000000034" y1="-3.6000000000000227" x2="515.4000000000001" y2="515.2" spreadMethod="pad">
<stop  offset="0%" stop-color="#5A2AA4"/>

<stop  offset="100%" stop-color="#F400EE"/>
</linearGradient>

<g id="Mask_1_MASK_0_FILL">
<path fill="#FFFFFF" stroke="none" d="
M 104.1 193.7
Q 97.85 194.4 93.55 197.3 84.45 203.45 81 215 80.2 237.8 94.65 245.65 100.3 248.7 108.95 248.25 129.2 247.2 134.95 231 136 228 136.3 224.95 137.4 214.6 134 208 131.45 203.05 127.6 199.35 120 192 104.1 193.7
M 121 221
Q 119.85 231.35 110 232.9 109.5 233 109 233 97.1 231.9 97 219 97 218.5 97 218 99.8 210.8 108 209.1 108.5 209 109 209 119.35 210.15 120.9 220 121 220.5 121 221
M 107 68
Q 106.5 68 106.3 68.25 101.15 74.15 95 79 94.5 79 94.1 78.8 87.65 75.85 81 73 81 69 81.6 65.1 82.8 57.7 78 57 73 57 68 57 67 57 66.8 57.4 64.25 62.25 65 70 65 70.5 65 71 65 72 64.5 72.4 62 74.5 58.95 75.95 54.9 77.9 50 79 50 78.5 49.75 78.2 44.6 72.4 38 68 37.5 68 37.2 68.25 31.9 72.9 28 79 28 79.5 28.25 79.7 34.15 84.85 39 91 39 91.5 38.8 91.9 35.85 98.35 33 105 32.5 105 32 105 24.5 105 17 105 17 105.5 17 106 17 112 17 118 17 118.5 17 119 17 120 17.15 120 23.5 121 30 121 30.5 121 31 121 32 121 32.4 121.5 34.5 124 35.95 127.05 37.9 131.1 39 136 38.5 136 38.25 136.25 33 141.5 28 147 28 147.5 28.25 147.75 33.5 153 39 158 39.5 158 39.7 157.75 44.85 151.85 51 147 51.5 147 51.9 147.2 58.35 150.15 65 153 65 157 64.4 160.9 63.2 168.3 68 169 73 169 78 169 79 169 79.2 168.6 81.75 163.75 81 156 81 155.5 81 155 81 154 81.5 153.6 84 151.5 87.05 150.05 91.1 148.1 96 147 96 147.5 96.25 147.75 101.5 153 107 158 107.5 158 107.75 157.75 113 152.5 118 147 118 146.5 117.75 146.3 111.85 141.15 107 135 107 134.5 107.2 134.1 110.15 127.65 113 121 117 121 120.9 121.6 128.3 122.8 129 118 129 113 129 108 129 107 128.6 106.8 123.75 104.25 116 105 115.5 105 115 105 114 105 113.6 104.5 111.5 102 110.05 98.95 108.1 94.9 107 90 107.5 90 107.8 89.75 113.6 84.6 118 78 118 77.5 117.75 77.2 113.1 71.9 107 68
M 62.3 91.45
Q 63 91 63.85 90.65 73 86.85 82.15 90.6 95.5 96 96.3 113.05 96.75 122.25 92.4 127.35 86.85 133.85 78 137 73.5 137 69 137 68.5 137 68 137 59.15 133.85 53.6 127.35 48.1 120.9 49 108 53.25 97.25 62.3 91.45
M 385 89
Q 385 83.5 384.2 78.1 380.45 53.05 365.25 38.75 350.05 24.45 327.3 17.1 305.4 10.1 277 9 246.35 7.85 221.85 12.25 196.3 16.8 178.45 28.15 160.25 39.75 150.7 59.35 145.7 69.65 145.45 84 145 113.5 145 143 136.45 153.95 137.45 174 137.7 179.8 139.35 184.25 147.4 206.1 174 209 179.35 224.65 189.25 235.8 203.15 251.35 225 259 225 259.5 224.9 260 221.4 277.4 211 288 210.5 288 210.1 288.2
L 209.5 288.5
Q 209 282 209 275 209 274 208.85 274 201.5 273 194 273 164.5 273 135 273 105.5 273 76 273 46.5 273 17 273 17 277.5 17 282 17 311.5 17 341 17 341.5 17 342 17 343 17.45 343.3 21.25 345.75 28 345 28.5 345 29 345
L 30 345
Q 29.15 348.15 26.6 350.6 23.3 353.8 20.75 357.5 15.4 365.4 12.5 375.15 10.7 381.2 9 387 9 416.5 9 446 9 475.5 9 505 12 505 15 505 44.5 505 74 505 103.5 505 133 505 162.5 505 192 505 221.5 505 251 505 280.5 505 310 505 339.5 505 369 505 369 479.5 368.45 454 368.25 445.75 370 440 379.85 456.65 392.85 470.15 407.3 485.2 428 494.05 433.25 496.3 440 496.4 465.45 496.95 478.3 484.3 493.15 469.65 499.25 446.8 505.6 423.1 505.3 393 505.05 363.45 502.85 336.95 500.55 308.95 497 283 495.15 269.85 493.6 256.95 491.15 236.85 485 221 482 219 478.75 217.65 468.95 213.55 460 209 459.5 209 459 209 455 209 451 209 444 202 432.1 199.6 431.5 199.5 430.95 199.45 410.8 197.3 399.75 204.65 395.2 207.7 391.65 211.6 384.45 219.45 378.55 228.7 375.65 233.15 373.15 238.6 363.95 258.45 358.4 282.1 355.5 294.5 350 304 337.2 301.3 327.5 295.2 309.65 283.85 305 259 320.9 253.4 332.4 243.35 348.1 229.6 357 209 375.75 206.25 385.3 194.25 391.9 185.9 392.45 172 393.1 153.4 385 143 385 116 385 89
M 347.15 44.75
Q 360.15 53.85 366.15 69.95 370.6 81.9 369.7 100.05 369 114 369.5 128 369.75 133.8 365 131 361.1 130.9 361.05 127 361 116 360 105.1 360 105 359 105 358.5 105 358 105 351.5 105 345.15 106 345 106 345 107 345 107.5 345 108 345 137.5 345.8 167 346.35 186.85 342.3 201.1 335.7 224.2 317.5 235.8 308.5 241.5 296.9 244.55 284.75 247.75 270.95 248.4 240.75 249.75 221 240 201.25 230.3 191.4 210.8 191 210 190.65 209.15 182.45 188.05 184.3 155.95 185 143.5 185 131 185 119 185 107 193.15 96.6 212 97.5 222.55 97.95 230.1 101.8 237.1 105.4 243 110 248.5 105 253.75 99.75 254 99.5 254 99 239.35 84.15 212.95 81.7 201.65 80.65 193.2 83.5 177.35 88.85 169 102 169 116 168 129.95 168 130 167.1 130.3 166.5 130.5 166 131 161.5 133 161.45 130 161 103.5 161 77 167.8 54.3 185.85 42.75 203.8 31.3 229.85 27.1 242.15 25.15 257 24.75 287.55 23.95 311.15 29.4 332.2 34.3 347.15 44.75
M 362 191
Q 360.55 192.4 360.65 187 361 166.5 361 146 378.05 150.95 376.1 173.95 376.05 175.05 375.55 176.9 372.8 187.8 362 191
M 460.5 226.15
Q 464.2 228.3 468.1 229.8 470.35 230.65 472 232 475.25 243.75 477.15 257 480.75 282.75 483.7 309.05 486.7 335.8 488.45 363.95 490.2 392.65 488 421 485.9 448.4 473.65 465.45 467.3 474.3 456.8 478.55 447.8 482.2 438 480 425.85 477.2 417.5 470.65 400.85 457.7 388.65 440.25 382.3 431.2 377 421 394.65 409.15 411.55 396.8 414.3 394.8 416.8 392.75 419 391 421 389 422.4 392.95 420.95 398.25 419.7 402.7 418.7 406.9 417.75 410.75 417 415 423.65 417.35 432 417.95 432.5 418 433 418 437.75 393.25 442.55 368.1 444.85 355.85 447.25 343.05 451.9 318.4 456.75 293.15 456.95 291.95 457 290 457 288 457 286 443.8 269.7 431.9 252.1 431.5 251.5 431.2 250.9 431 250.5 431 250 438.3 248.3 448 248.95 448.5 249 449 249 448.3 237.8 449.95 229 450.3 227.3 452 227 455.4 223.2 460.5 226.15
M 423 214.95
Q 431.3 215.2 437 218 433.8 223.8 433.05 232 433 232.5 433 233 418.4 233.9 415.5 246.9 415.5 247 415 247 415 250.5 415 254 415 254.5 415 255 423 269 432.75 281.2 433 281.5 433 282 423.6 290.1 405.05 288.55 404.5 288.5 403.9 288.2 403.5 288 403 288 397.8 282.2 397.5 271 397 253.5 389 243 396.25 228.25 408.55 218.7 413.7 214.7 423 214.95
M 381 264
Q 382 278.05 385.85 289.7 389.45 300.55 401.05 303.75 407.9 305.6 416.95 304.6 429.25 303.25 438 298 438.95 302.95 437.35 310.1 431.85 334.35 427.45 359.9 427 362.5 426.5 365.1 426 367.5 425.15 369.65 425 370 424 370 409.6 369.4 402.8 361.15 399.45 357.05 396.55 352.3 395.1 349.9 392.1 348.75 391.5 348.5 390.95 348.05 383.35 341.65 372.05 338.9 364.05 336.95 354.05 337.8 349.3 338.2 349 335 362.95 319.45 370.55 297.2 373.3 289.3 375.5 280.85 376 279 376.4 277.1 377.85 269.85 381 264
M 340.85 319.45
Q 341 319.5 341 320 333.75 328.25 326.7 336.75 324 340 325 347 327.05 350.95 331.85 352.45 332 352.5 332 353 364.45 350.05 382.7 361.5 383.5 362 384.15 362.9 392.15 374.3 404 382 387.3 394.3 370.25 406.35 370 406.5 370 407 368.25 403.25 368.5 397 369 383 368 369.05 368 369 367 369 366.5 369 366 369 359.5 369 353.15 370 353 370 353 371 353 371.5 353 372 353 401.5 353 431 353 460 353 489 323.5 489 294 489 264.5 489 235 489 226 489 217 489 217 459.5 217 430 217 409.5 216.15 389.05 216 386 215.3 382.95 209.95 358.55 192.3 346.55 191.5 346 191 345 199.5 345 208 345 208.5 345 209 345 209 327 210 309.05 210 309 210.8 308.6 211 308.5 211 308 214.65 306.6 217.45 310.7 223.5 319.5 234.7 323.75 237.25 324.75 240.15 325.5 258.7 330.55 279.9 327.3 303.65 323.65 316 308 327.6 314.4 340.85 319.45
M 167.05 147.15
Q 167.5 147 168 147 169.45 145.6 169.35 151 169 171 168.5 191 168.5 191.5 168 192 152.2 186.3 153 164 153 163.5 153 163 156.4 151.4 167.05 147.15
M 92 289
Q 121.5 289 151 289 172 289 193 289 193 308.5 193 328 193 328.5 193 329 163.5 329 134 329 104.5 329 75 329 54 329 33 329 33 309.5 33 290 33 289.5 33 289 62.5 289 92 289
M 27.9 377.95
Q 28 377.5 28 377 50.5 377 73 377.5
L 73 378
Q 57.35 391.85 57.8 421 58 433 62.3 441.35 66.7 449.8 73 456 68.75 457.75 62 457.55 43.5 457 25 457 25 427.5 25 398 25 393.5 25 389 26.55 383.55 27.9 377.95
M 39 360.5
Q 38.5 360.5 38 360 52.5 345 82 345 111.5 345 141 345.55 168.4 346.1 183 360 184 361.55 178 361.45 148.5 361 119 361 89.5 361 60 361 49.5 361 39 360.5
M 105 378
Q 115.3 375.35 124.25 378.15 147.25 385.25 152.7 409.85 152.95 411.05 153 413 153.15 435.15 141.7 445.75 133.9 452.9 122 456 111.45 458.7 102.8 455.65 101 455 99.35 454.25 89.6 449.9 82.5 442.5 82 442 81.5 441.5 74.95 435.05 74 423 73.5 423 73.5 422.95 73 417 73 411 73.5 411 74 411 74 410.5 74 410 74 408 74 406 81.45 383.95 105 378
M 289 263.1
Q 289.5 263 290 263 293.3 283.2 303.75 296.2 304 296.5 304 297 291.55 314.05 261 312.85 237.55 311.9 226.95 298.05 226.5 297.5 226.3 296.9 226 296 226 295 236.9 283.4 239.9 264 240 263.5 240 263 264.55 267.05 289 263.1
M 196 377
Q 196.5 377 197 377 202.6 393.4 201.75 417.05 201 437 201 457 177 457 153 456.5
L 153 456
Q 168.5 442 168.15 413 168 401 163.7 392.65 159.15 383.85 153 377 174.5 377 196 377
M 201 476
Q 201 482.5 200 488.85 200 489 199 489 198.5 489 198 489 168.5 489 139 489 109.5 489 80 489 52.5 489 25 489 25 481.5 25 474 25 473.5 25 473 54.5 473 84 473 113.5 473 143 473 171.5 473 200 473.3 201.7 473.3 201 476
M 74 422
Q 74 416.5 74 411 73.5 411 73 411 73 417 73.5 422.95 73.5 423 74 423 74 422.5 74 422
M 118 393
Q 113 393 108 393 107 393 106.8 393.4 104.25 398.25 105 406 105 406.5 105 407 105 408 104.9 408 97 409 89 409 89 409.5 89 410 89 416 89 422 89 422.5 89 423 89 424 89.15 424 95.5 425 102 425 106.8 425.7 105 433 103.2 440.3 108 441 113 441 118 441 119 441 119.2 440.6 121.75 435.75 121 428 121.7 423.2 129 425 136.3 426.8 137 422 137 417 137 412 137 411 136.6 410.8 131.75 408.25 124 409 119.2 408.3 121 401 122.8 393.7 118 393
M 241 193
Q 240.5 193 240.05 193.15 222.85 198.85 212 211 212 211.5 212.25 211.75 217.5 217 223 222 223.5 222 223.7 221.75 230.4 213.4 241 209 244.4 211.1 246.85 214.1 253.45 222.05 265 225 269.95 224.45 272.95 221.9 281 215 290 209 290.5 209 290.85 209.25 299.45 215.05 307 222 307.5 222 307.75 221.75 313 216.5 318 211 312.95 206.55 308.05 201.95 300.05 194.4 286 193 284.35 194.35 282.4 195.6 273.05 201.55 265 209 264.5 209 264.35 208.75 256.1 197.4 241 193
M 214.3 124.25
Q 209.65 129.65 204 134 204 134.5 204.25 134.75 213.6 143.35 222 153 221.5 153 221.25 153.25 212.5 162 204 171 204 171.5 204.25 171.75 209.5 177 215 182 215 181.5 215.25 181.25 230.1 167.1 244 152 243.5 152 243.25 151.75 229.6 137.35 215 124 214.5 124 214.3 124.25
M 259.5 74.1
Q 257.95 80.95 255 86 255 86.5 255 87 255 88 255.3 88.1 272.9 94.1 282 108 282.5 108 282.9 107.8 289 104.5 295 101 295 100.5 294.8 100.1 294.5 99.5 294.15 98.9 282.55 80.95 260 74 259.5 74 259.5 74.1
M 335 101
Q 335 100.5 334.8 100.1 334.5 99.5 334.15 98.9 322.55 80.95 300 74 299.5 74 299.5 74.1 297.95 80.95 295 86 295 86.5 295 87 295 88 295.3 88.1 312.9 94.1 322 108 322.5 108 322.9 107.8 329 104.5 335 101
M 326 134
Q 325.5 134 325.3 133.75 320.65 128.35 315 124 314.5 124 314.25 124.25 300.6 138.65 286 152 286 152.5 286.25 152.75 301 167.5 316 182 316 181.5 316.25 181.3 321.65 176.65 326 171 326 170.5 325.75 170.25 316.35 161.6 308 152 308.5 152 308.75 151.75 317.5 143 326 134
M 488 109
Q 488 108.5 487.75 108.25 482.5 103 477 98 476.5 98 476.25 98.25 471 103.5 466 109 460.95 108.05 456.8 106.6 447.35 103.3 439.9 106.8 435.1 109.05 432 108 431.5 108 431.3 107.75 426.65 102.35 421 98 420.5 98 420.3 98.25 415.65 103.65 410 108 410 108.5 410.25 108.8 414.85 115.15 421 120 420.8 123.8 419.65 126.3 415 136.3 419 146 421.05 150.95 420 154 420 154.5 419.75 154.7 414.35 159.35 410 165 410 165.5 410.25 165.75 415.5 171 421 176 421.5 176 421.75 175.75 427 170.5 432 165 435.8 165.2 438.3 166.35 448.3 171 458 167 462.95 164.95 466 166 466.5 166 466.7 166.25 471.35 171.65 477 176 477.5 176 477.75 175.75 483 170.5 488 165 488 164.5 487.75 164.25 482.5 159 477 154 477.2 150.2 478.35 147.7 483 137.7 479 128 476.95 123.1 478 120 478 119.5 478.25 119.3 483.65 114.65 488 109
M 452 121
Q 452.5 121 453 121 460.1 123.4 463.4 129.8 463.5 130 464 130 465.15 134.35 465 140 465 140.5 465 141 462.6 148.1 456.2 151.4 456 151.5 456 152 451.65 153.15 446 153 445.5 153 445 153 437.9 150.6 434.6 144.2 434.5 144 434 144 432.85 139.65 433 134 433 133.5 433 133 435.4 125.9 441.8 122.6 442 122.5 442 122 446.35 120.85 452 121 Z"/>
</g>

<g id="Layer1_0_FILL">
<path fill="url(#Gradient_1)" stroke="none" d="
M 0 512
L 512 512 512 0 0 0 0 512 Z"/>
</g>
</defs>

<mask id="Mask_Mask_1">
<g transform="matrix( 1, 0, 0, 1, 0,0) ">
<use xlink:href="#Mask_1_MASK_0_FILL"/>
</g>
</mask>

<g mask="url(#Mask_Mask_1)">
<g transform="matrix( 1, 0, 0, 1, 0,0) ">
<use xlink:href="#Layer1_0_FILL"/>
</g>
</g>
</svg>
